<?xml version="1.0" encoding="UTF-8" standalone="no"?>
<!-- Created with Inkscape (http://www.inkscape.org/) -->

<svg
   xmlns:ns0="http://www.iki.fi/pav/software/textext/"
   xmlns:dc="http://purl.org/dc/elements/1.1/"
   xmlns:cc="http://creativecommons.org/ns#"
   xmlns:rdf="http://www.w3.org/1999/02/22-rdf-syntax-ns#"
   xmlns:svg="http://www.w3.org/2000/svg"
   xmlns="http://www.w3.org/2000/svg"
   xmlns:sodipodi="http://sodipodi.sourceforge.net/DTD/sodipodi-0.dtd"
   xmlns:inkscape="http://www.inkscape.org/namespaces/inkscape"
   width="210mm"
   height="297mm"
   id="svg2"
   version="1.1"
   inkscape:version="0.48.4 r9939"
   sodipodi:docname="描画.svg">
  <sodipodi:namedview
     id="base"
     pagecolor="#ffffff"
     bordercolor="#666666"
     borderopacity="1.0"
     inkscape:pageopacity="0.0"
     inkscape:pageshadow="2"
     inkscape:zoom="0.98994949"
     inkscape:cx="136.69666"
     inkscape:cy="766.14395"
     inkscape:document-units="px"
     inkscape:current-layer="layer1"
     showgrid="true"
     inkscape:window-width="1875"
     inkscape:window-height="1056"
     inkscape:window-x="45"
     inkscape:window-y="24"
     inkscape:window-maximized="1"
     showguides="true"
     inkscape:guide-bbox="true">
    <inkscape:grid
       id="grid2985"
       type="xygrid" />
  </sodipodi:namedview>
  <defs
     id="defs4">
    <marker
       style="overflow:visible;"
       id="Arrow1Mend"
       refX="0.0"
       refY="0.0"
       orient="auto"
       inkscape:stockid="Arrow1Mend">
      <path
         transform="scale(0.4) rotate(180) translate(10,0)"
         style="fill-rule:evenodd;stroke:#000000;stroke-width:1.0pt;"
         d="M 0.0,0.0 L 5.0,-5.0 L -12.5,0.0 L 5.0,5.0 L 0.0,0.0 z "
         id="path3968" />
    </marker>
    <marker
       style="overflow:visible"
       id="Arrow1Mstart"
       refX="0.0"
       refY="0.0"
       orient="auto"
       inkscape:stockid="Arrow1Mstart">
      <path
         transform="scale(0.4) translate(10,0)"
         style="fill-rule:evenodd;stroke:#000000;stroke-width:1.0pt"
         d="M 0.0,0.0 L 5.0,-5.0 L -12.5,0.0 L 5.0,5.0 L 0.0,0.0 z "
         id="path3965" />
    </marker>
    <marker
       style="overflow:visible"
       id="Arrow1Mstart-9"
       refX="0"
       refY="0"
       orient="auto"
       inkscape:stockid="Arrow1Mstart">
      <path
         transform="matrix(0.4,0,0,0.4,4,0)"
         style="fill-rule:evenodd;stroke:#000000;stroke-width:1pt"
         d="M 0,0 5,-5 -12.5,0 5,5 0,0 z"
         id="path3965-6"
         inkscape:connector-curvature="0" />
    </marker>
    <marker
       style="overflow:visible"
       id="Arrow1Mend-6"
       refX="0"
       refY="0"
       orient="auto"
       inkscape:stockid="Arrow1Mend">
      <path
         transform="matrix(-0.4,0,0,-0.4,-4,0)"
         style="fill-rule:evenodd;stroke:#000000;stroke-width:1pt"
         d="M 0,0 5,-5 -12.5,0 5,5 0,0 z"
         id="path3968-9"
         inkscape:connector-curvature="0" />
    </marker>
    <marker
       style="overflow:visible"
       id="Arrow1Mend-6G"
       refX="0"
       refY="0"
       orient="auto"
       inkscape:stockid="Arrow1Mend-6G">
      <path
         transform="matrix(-0.4,0,0,-0.4,-4,0)"
         style="stroke:#ff0000;stroke-width:1pt;fill:#ff0000;fill-rule:evenodd"
         d="M 0,0 5,-5 -12.5,0 5,5 0,0 z"
         id="path5664"
         inkscape:connector-curvature="0" />
    </marker>
  </defs>
  <metadata
     id="metadata7">
    <rdf:RDF>
      <cc:Work
         rdf:about="">
        <dc:format>image/svg+xml</dc:format>
        <dc:type
           rdf:resource="http://purl.org/dc/dcmitype/StillImage" />
        <dc:title></dc:title>
      </cc:Work>
    </rdf:RDF>
  </metadata>
  <g
     id="layer1"
     inkscape:groupmode="layer"
     inkscape:label="レイヤー 1">
    <path
       sodipodi:nodetypes="ccc"
       inkscape:connector-curvature="0"
       id="path2987"
       d="m 160,82.362183 0,329.999997 360,0"
       style="fill:none;stroke:#000000;stroke-width:2;stroke-linecap:butt;stroke-linejoin:miter;stroke-miterlimit:4;stroke-opacity:1;stroke-dasharray:none;marker-start:url(#Arrow1Mstart);marker-end:url(#Arrow1Mend)" />
    <g
       id="g6071">
      <path
         id="path2987-1"
         d="M 235.67122,126.15371 320.93437,273.83382 468.6145,188.57066"
         style="fill:none;stroke:#000000;stroke-width:2;stroke-linecap:butt;stroke-linejoin:miter;stroke-miterlimit:4;stroke-opacity:1;stroke-dasharray:none;marker-start:url(#Arrow1Mstart);marker-end:url(#Arrow1Mend)" />
    </g>
    <path
       transform="translate(29.294424,-1.0101525)"
       d="m 340,87.362183 a 5,5 0 1 1 -10,0 5,5 0 1 1 10,0 z"
       sodipodi:ry="5"
       sodipodi:rx="5"
       sodipodi:cy="87.362183"
       sodipodi:cx="335"
       id="path4585"
       style="fill:#000000;stroke:#000000;stroke-width:2;stroke-miterlimit:4;stroke-dasharray:none"
       sodipodi:type="arc" />
    <path
       inkscape:connector-curvature="0"
       id="path2987-1-4"
       d="m 321.27409,103.65544 0,170.5263 170.52633,0"
       style="fill:none;stroke:#000000;stroke-width:1.2;stroke-linecap:butt;stroke-linejoin:miter;stroke-miterlimit:4;stroke-opacity:1;stroke-dasharray:2.4,1.2;marker-start:url(#Arrow1Mstart);marker-end:url(#Arrow1Mend);stroke-dashoffset:0" />
    <path
       sodipodi:nodetypes="cc"
       inkscape:connector-curvature="0"
       id="path4617"
       d="M 321,274.36218 362,93.362183"
       style="stroke-linejoin:miter;marker-end:url(#Arrow1Mend-6G);stroke-opacity:1;stroke:#ff0000;stroke-linecap:butt;stroke-miterlimit:4;stroke-dasharray:none;stroke-width:1.9;fill:#ff0000" />
    <path
       sodipodi:nodetypes="cc"
       inkscape:connector-curvature="0"
       id="path4619"
       d="M 160,412.36218 360,92.362183"
       style="fill:none;stroke:#000000;stroke-width:1px;stroke-linecap:butt;stroke-linejoin:miter;stroke-opacity:1;marker-end:url(#Arrow1Mend-6)" />
    <path
       inkscape:connector-curvature="0"
       id="path4809"
       d="M 365,87.362183 434.28203,207.36218"
       style="fill:none;stroke:#000000;stroke-width:1px;stroke-linecap:butt;stroke-linejoin:miter;stroke-opacity:1" />
    <path
       sodipodi:nodetypes="cc"
       inkscape:connector-curvature="0"
       id="path4811"
       d="M 364,86.362183 C 251.4167,151.36218 250,152.36218 250,152.36218"
       style="fill:none;stroke:#000000;stroke-width:1px;stroke-linecap:butt;stroke-linejoin:miter;stroke-opacity:1" />
    <path
       inkscape:connector-curvature="0"
       id="path4813"
       d="m 430,200.36218 -8,4.6188 4.26154,7.3812"
       style="fill:none;stroke:#000000;stroke-width:1px;stroke-linecap:butt;stroke-linejoin:miter;stroke-opacity:1" />
    <path
       inkscape:connector-curvature="0"
       id="path4813-4"
       d="m 254.12776,159.22716 8.22081,-4.21328 -3.88739,-7.58492"
       style="fill:none;stroke:#000000;stroke-width:1px;stroke-linecap:butt;stroke-linejoin:miter;stroke-opacity:1" />
    <g
       id="g5002"
       transform="matrix(2.6727518,0,0,-2.5870069,-405.41389,1932.8838)"
       xml:space="preserve"
       stroke-miterlimit="10.433"
       font-style="normal"
       font-variant="normal"
       font-weight="normal"
       font-stretch="normal"
       font-size-adjust="none"
       letter-spacing="normal"
       word-spacing="normal"
       ns0:text="$j(j_x,\\ j_y)$"
       ns0:preamble=""
       style="font-style:normal;font-variant:normal;font-weight:normal;font-stretch:normal;letter-spacing:normal;word-spacing:normal;text-anchor:start;fill:none;stroke:#000000;stroke-linecap:butt;stroke-linejoin:miter;stroke-miterlimit:10.43299961;stroke-opacity:1;stroke-dasharray:none;stroke-dashoffset:0"><path
         style="fill:#000000;stroke-width:0"
         inkscape:connector-curvature="0"
         d="m 227.38,713.33 0,0.02 0,0.02 0,0.02 0,0.01 -0.01,0.02 0,0.02 -0.01,0.01 0,0.02 -0.01,0.01 -0.01,0.02 -0.01,0.02 0,0.01 -0.01,0.01 -0.01,0.02 -0.02,0.01 -0.01,0.01 -0.01,0.02 -0.01,0.01 -0.02,0.01 -0.01,0.01 -0.02,0.01 -0.01,0.01 -0.02,0 -0.02,0.01 -0.01,0.01 -0.02,0 -0.02,0.01 -0.02,0 -0.02,0.01 -0.02,0 -0.02,0 -0.03,0 c -0.23,0 -0.52,-0.23 -0.52,-0.53 0,-0.19 0.14,-0.35 0.37,-0.35 0.26,0 0.53,0.26 0.53,0.52 z"
         id="path5004" /><path
         style="fill:#000000;stroke-width:0"
         inkscape:connector-curvature="0"
         d="m 225.38,706.63 -0.02,-0.07 -0.02,-0.07 -0.02,-0.07 -0.02,-0.07 -0.03,-0.06 -0.02,-0.06 -0.03,-0.07 -0.03,-0.06 -0.03,-0.06 -0.03,-0.05 -0.04,-0.06 -0.03,-0.05 -0.04,-0.05 -0.03,-0.05 -0.04,-0.05 -0.04,-0.05 -0.04,-0.04 -0.04,-0.04 -0.05,-0.04 -0.04,-0.03 -0.04,-0.04 -0.05,-0.03 -0.05,-0.03 -0.04,-0.02 -0.05,-0.03 -0.05,-0.02 -0.05,-0.01 -0.05,-0.02 -0.05,-0.01 -0.05,-0.01 -0.05,0 -0.05,0 c -0.06,0 -0.21,0 -0.39,0.09 0.3,0.07 0.45,0.32 0.45,0.52 0,0.16 -0.11,0.35 -0.38,0.35 -0.25,0 -0.54,-0.21 -0.54,-0.57 0,-0.39 0.4,-0.61 0.88,-0.61 0.7,0 1.62,0.52 1.87,1.51 l 0.91,3.63 c 0.05,0.2 0.05,0.34 0.05,0.37 0,0.57 -0.41,0.92 -0.91,0.92 -1.02,0 -1.58,-1.44 -1.58,-1.53 0,-0.1 0.1,-0.1 0.12,-0.1 0.09,0 0.1,0.01 0.18,0.2 0.24,0.6 0.7,1.21 1.25,1.21 0.14,0 0.32,-0.04 0.32,-0.46 0,-0.23 -0.03,-0.34 -0.07,-0.51 z"
         id="path5006" /><path
         style="fill:#000000;stroke-width:0"
         inkscape:connector-curvature="0"
         d="m 231.4,704.74 0,0.01 0,0 0,0 0,0.01 0,0 0,0 -0.01,0.01 0,0 0,0 0,0.01 0,0 -0.01,0.01 0,0 0,0.01 -0.01,0 0,0.01 -0.01,0.01 0,0 -0.01,0.01 0,0 0,0.01 -0.01,0 0,0 0,0.01 -0.01,0 0,0.01 -0.01,0 0,0.01 -0.01,0 0,0.01 -0.01,0 0,0.01 -0.01,0.01 -0.01,0 0,0.01 -0.01,0.01 0,0 -0.01,0.01 -0.01,0.01 -0.01,0 0,0.01 -0.01,0.01 c -1.24,1.25 -1.56,3.13 -1.56,4.65 0,1.73 0.37,3.46 1.6,4.7 0.13,0.12 0.13,0.14 0.13,0.17 0,0.07 -0.04,0.1 -0.1,0.1 -0.1,0 -1,-0.68 -1.58,-1.94 -0.51,-1.09 -0.63,-2.2 -0.63,-3.03 0,-0.78 0.11,-1.98 0.66,-3.1 0.59,-1.22 1.45,-1.87 1.55,-1.87 0.06,0 0.1,0.03 0.1,0.1 z"
         id="path5008" /><path
         style="fill:#000000;stroke-width:0"
         inkscape:connector-curvature="0"
         d="m 235.93,713.33 0,0.02 0,0.02 0,0.02 -0.01,0.01 0,0.02 -0.01,0.02 0,0.01 -0.01,0.02 0,0.01 -0.01,0.02 -0.01,0.02 -0.01,0.01 -0.01,0.01 -0.01,0.02 -0.01,0.01 -0.01,0.01 -0.01,0.02 -0.02,0.01 -0.01,0.01 -0.01,0.01 -0.02,0.01 -0.02,0.01 -0.01,0 -0.02,0.01 -0.02,0.01 -0.02,0 -0.01,0.01 -0.02,0 -0.02,0.01 -0.03,0 -0.02,0 -0.02,0 c -0.23,0 -0.53,-0.23 -0.53,-0.53 0,-0.19 0.14,-0.35 0.37,-0.35 0.27,0 0.54,0.26 0.54,0.52 z"
         id="path5010" /><path
         style="fill:#000000;stroke-width:0"
         inkscape:connector-curvature="0"
         d="m 233.93,706.63 -0.02,-0.07 -0.02,-0.07 -0.02,-0.07 -0.03,-0.07 -0.02,-0.06 -0.03,-0.06 -0.02,-0.07 -0.03,-0.06 -0.03,-0.06 -0.04,-0.05 -0.03,-0.06 -0.03,-0.05 -0.04,-0.05 -0.04,-0.05 -0.04,-0.05 -0.04,-0.05 -0.04,-0.04 -0.04,-0.04 -0.04,-0.04 -0.04,-0.03 -0.05,-0.04 -0.04,-0.03 -0.05,-0.03 -0.05,-0.02 -0.04,-0.03 -0.05,-0.02 -0.05,-0.01 -0.05,-0.02 -0.05,-0.01 -0.05,-0.01 -0.05,0 -0.05,0 c -0.06,0 -0.21,0 -0.39,0.09 0.3,0.07 0.44,0.32 0.44,0.52 0,0.16 -0.1,0.35 -0.37,0.35 -0.25,0 -0.54,-0.21 -0.54,-0.57 0,-0.39 0.4,-0.61 0.88,-0.61 0.69,0 1.62,0.52 1.87,1.51 l 0.91,3.63 c 0.05,0.2 0.05,0.34 0.05,0.37 0,0.57 -0.42,0.92 -0.91,0.92 -1.02,0 -1.59,-1.44 -1.59,-1.53 0,-0.1 0.1,-0.1 0.12,-0.1 0.09,0 0.1,0.01 0.18,0.2 0.25,0.6 0.71,1.21 1.26,1.21 0.14,0 0.31,-0.04 0.31,-0.46 0,-0.23 -0.03,-0.34 -0.07,-0.51 z"
         id="path5012" /><path
         style="fill:#000000;stroke-width:0"
         inkscape:connector-curvature="0"
         d="m 237.82,706.37 -0.01,-0.02 -0.01,-0.03 -0.01,-0.02 -0.01,-0.03 -0.01,-0.02 -0.01,-0.03 -0.01,-0.02 -0.02,-0.03 -0.01,-0.02 -0.01,-0.03 -0.02,-0.02 -0.02,-0.03 -0.02,-0.02 -0.01,-0.03 -0.02,-0.02 -0.02,-0.03 -0.02,-0.02 -0.03,-0.02 -0.02,-0.02 -0.02,-0.02 -0.03,-0.02 -0.02,-0.02 -0.03,-0.02 -0.03,-0.01 -0.02,-0.02 -0.03,-0.01 -0.03,-0.01 -0.03,-0.01 -0.03,0 -0.03,-0.01 -0.04,0 -0.03,0 c -0.02,0 -0.23,0 -0.37,0.09 0.28,0.09 0.3,0.34 0.3,0.39 0,0.15 -0.12,0.25 -0.28,0.25 -0.19,0 -0.39,-0.16 -0.39,-0.42 0,-0.35 0.39,-0.51 0.73,-0.51 0.32,0 0.6,0.2 0.78,0.49 0.17,-0.36 0.55,-0.49 0.83,-0.49 0.8,0 1.22,0.87 1.22,1.06 0,0.1 -0.09,0.1 -0.11,0.1 -0.1,0 -0.1,-0.04 -0.13,-0.12 -0.15,-0.48 -0.57,-0.84 -0.96,-0.84 -0.27,0 -0.42,0.18 -0.42,0.45 0,0.18 0.17,0.81 0.36,1.58 0.14,0.54 0.45,0.71 0.68,0.71 0.02,0 0.23,0 0.38,-0.09 -0.22,-0.07 -0.31,-0.26 -0.31,-0.39 0,-0.15 0.12,-0.25 0.28,-0.25 0.16,0 0.39,0.13 0.39,0.42 0,0.39 -0.44,0.51 -0.72,0.51 -0.35,0 -0.63,-0.23 -0.78,-0.5 -0.13,0.29 -0.45,0.5 -0.84,0.5 -0.78,0 -1.22,-0.86 -1.22,-1.07 0,-0.09 0.09,-0.09 0.12,-0.09 0.09,0 0.09,0.03 0.13,0.12 0.17,0.54 0.61,0.84 0.95,0.84 0.23,0 0.42,-0.12 0.42,-0.46 0,-0.13 -0.08,-0.48 -0.15,-0.72 z"
         id="path5014" /><path
         style="fill:#000000;stroke-width:0"
         inkscape:connector-curvature="0"
         d="m 243.12,707.14 0,0.06 0,0.05 -0.01,0.06 0,0.06 -0.01,0.05 -0.01,0.05 -0.01,0.06 -0.01,0.04 -0.01,0.05 -0.01,0.05 -0.02,0.04 -0.01,0.04 -0.02,0.04 -0.02,0.04 -0.01,0.04 -0.03,0.03 -0.02,0.04 -0.02,0.03 -0.02,0.02 -0.03,0.03 -0.02,0.03 -0.03,0.02 -0.03,0.02 -0.03,0.02 -0.03,0.01 -0.03,0.02 -0.03,0.01 -0.03,0.01 -0.03,0.01 -0.04,0 -0.03,0.01 -0.04,0 c -0.33,0 -0.53,-0.25 -0.53,-0.53 0,-0.27 0.2,-0.53 0.53,-0.53 0.12,0 0.25,0.04 0.35,0.13 0.03,0.02 0.04,0.03 0.05,0.03 0.01,0 0.02,-0.01 0.02,-0.14 0,-0.74 -0.35,-1.34 -0.68,-1.66 -0.11,-0.11 -0.11,-0.13 -0.11,-0.16 0,-0.07 0.05,-0.11 0.1,-0.11 0.11,0 0.91,0.76 0.91,1.93 z"
         id="path5016" /><path
         style="fill:#000000;stroke-width:0"
         inkscape:connector-curvature="0"
         d="m 252.8,713.33 0,0.02 0,0.02 -0.01,0.02 0,0.01 0,0.02 -0.01,0.02 0,0.01 -0.01,0.02 -0.01,0.01 0,0.02 -0.01,0.02 -0.01,0.01 -0.01,0.01 -0.01,0.02 -0.01,0.01 -0.01,0.01 -0.02,0.02 -0.01,0.01 -0.01,0.01 -0.02,0.01 -0.01,0.01 -0.02,0.01 -0.01,0 -0.02,0.01 -0.02,0.01 -0.02,0 -0.02,0.01 -0.02,0 -0.02,0.01 -0.02,0 -0.02,0 -0.02,0 c -0.23,0 -0.53,-0.23 -0.53,-0.53 0,-0.19 0.14,-0.35 0.37,-0.35 0.27,0 0.54,0.26 0.54,0.52 z"
         id="path5018" /><path
         style="fill:#000000;stroke-width:0"
         inkscape:connector-curvature="0"
         d="m 250.8,706.63 -0.02,-0.07 -0.02,-0.07 -0.02,-0.07 -0.03,-0.07 -0.02,-0.06 -0.03,-0.06 -0.03,-0.07 -0.03,-0.06 -0.03,-0.06 -0.03,-0.05 -0.03,-0.06 -0.04,-0.05 -0.03,-0.05 -0.04,-0.05 -0.04,-0.05 -0.04,-0.05 -0.04,-0.04 -0.04,-0.04 -0.04,-0.04 -0.04,-0.03 -0.05,-0.04 -0.04,-0.03 -0.05,-0.03 -0.05,-0.02 -0.05,-0.03 -0.04,-0.02 -0.05,-0.01 -0.05,-0.02 -0.05,-0.01 -0.05,-0.01 -0.06,0 -0.05,0 c -0.06,0 -0.21,0 -0.39,0.09 0.3,0.07 0.45,0.32 0.45,0.52 0,0.16 -0.11,0.35 -0.37,0.35 -0.25,0 -0.54,-0.21 -0.54,-0.57 0,-0.39 0.4,-0.61 0.87,-0.61 0.7,0 1.62,0.52 1.87,1.51 l 0.92,3.63 c 0.05,0.2 0.05,0.34 0.05,0.37 0,0.57 -0.42,0.92 -0.92,0.92 -1.01,0 -1.58,-1.44 -1.58,-1.53 0,-0.1 0.1,-0.1 0.12,-0.1 0.09,0 0.1,0.01 0.18,0.2 0.25,0.6 0.71,1.21 1.25,1.21 0.14,0 0.32,-0.04 0.32,-0.46 0,-0.23 -0.03,-0.34 -0.07,-0.51 z"
         id="path5020" /><path
         style="fill:#000000;stroke-width:0"
         inkscape:connector-curvature="0"
         d="m 256.82,708.25 0,0.01 0,0 0,0.01 0.01,0 0,0 0,0.01 0,0.01 0,0 0,0.01 0.01,0.01 0,0 0,0.01 0,0 0,0.01 0,0 0,0.01 0,0 0,0.01 0.01,0 0,0 0,0.01 0,0 0,0 0,0.01 0,0.01 0,0 0,0.01 0,0 0,0.01 0,0 0,0.01 c 0,0.13 -0.11,0.22 -0.23,0.22 -0.08,0 -0.21,-0.04 -0.29,-0.17 -0.02,-0.04 -0.07,-0.26 -0.11,-0.4 l -0.14,-0.58 c -0.05,-0.17 -0.26,-1.04 -0.28,-1.12 -0.01,0 -0.32,-0.6 -0.86,-0.6 -0.47,0 -0.47,0.45 -0.47,0.57 0,0.38 0.16,0.82 0.37,1.35 0.08,0.23 0.12,0.31 0.12,0.43 0,0.33 -0.29,0.59 -0.67,0.59 -0.7,0 -1.01,-0.95 -1.01,-1.07 0,-0.09 0.09,-0.09 0.12,-0.09 0.09,0 0.1,0.04 0.12,0.11 0.17,0.58 0.47,0.85 0.75,0.85 0.12,0 0.18,-0.07 0.18,-0.24 0,-0.16 -0.07,-0.31 -0.1,-0.4 -0.34,-0.85 -0.4,-1.11 -0.4,-1.41 0,-0.12 0,-0.45 0.27,-0.67 0.21,-0.18 0.51,-0.22 0.69,-0.22 0.28,0 0.53,0.11 0.76,0.31 -0.09,-0.38 -0.16,-0.67 -0.46,-1.02 -0.19,-0.21 -0.46,-0.44 -0.83,-0.44 -0.05,0 -0.38,0 -0.53,0.23 0.38,0.04 0.38,0.37 0.38,0.38 0,0.22 -0.2,0.26 -0.27,0.26 -0.17,0 -0.41,-0.14 -0.41,-0.46 0,-0.35 0.34,-0.61 0.83,-0.61 0.71,0 1.56,0.55 1.78,1.41 z"
         id="path5022" /><path
         style="fill:#000000;stroke-width:0"
         inkscape:connector-curvature="0"
         d="m 260.61,709.61 0,0.07 0,0.08 0,0.08 0,0.08 -0.01,0.17 -0.01,0.17 -0.02,0.18 -0.02,0.19 -0.03,0.2 -0.03,0.2 -0.04,0.2 -0.05,0.21 -0.05,0.21 -0.06,0.21 -0.07,0.21 -0.08,0.21 -0.04,0.11 -0.05,0.11 -0.04,0.1 -0.05,0.11 c -0.6,1.22 -1.46,1.87 -1.56,1.87 -0.05,0 -0.1,-0.04 -0.1,-0.1 0,-0.03 0,-0.05 0.19,-0.23 0.98,-0.99 1.55,-2.57 1.55,-4.64 0,-1.7 -0.37,-3.45 -1.61,-4.7 -0.13,-0.12 -0.13,-0.14 -0.13,-0.17 0,-0.06 0.05,-0.1 0.1,-0.1 0.1,0 1,0.68 1.59,1.94 0.5,1.09 0.62,2.19 0.62,3.03 z"
         id="path5024" /></g>    <g
       style="font-style:normal;font-variant:normal;font-weight:normal;font-stretch:normal;letter-spacing:normal;word-spacing:normal;text-anchor:start;fill:none;stroke:#000000;stroke-linecap:butt;stroke-linejoin:miter;stroke-miterlimit:10.43299961;stroke-opacity:1;stroke-dasharray:none;stroke-dashoffset:0"
       id="g5246"
       transform="matrix(3.2846397,0,0,-3.2846397,-369.83944,2398.2925)"
       xml:space="preserve"
       stroke-miterlimit="10.433"
       font-style="normal"
       font-variant="normal"
       font-weight="normal"
       font-stretch="normal"
       font-size-adjust="none"
       letter-spacing="normal"
       word-spacing="normal"
       ns0:text="$P$"
       ns0:preamble=""><path
         style="fill:#000000;stroke-width:0"
         inkscape:connector-curvature="0"
         d="m 226.45,710.26 0.04,0.26 0.67,2.7 c 0.09,0.35 0.11,0.38 0.54,0.38 h 0.95 c 0.83,0 1.36,-0.27 1.36,-0.95 0,-0.39 -0.2,-1.24 -0.59,-1.6 -0.5,-0.45 -1.09,-0.53 -1.53,-0.53 h -1.4 l -0.04,-0.26 h 1.69 c 1.41,0 2.79,1.04 2.79,2.15 0,0.76 -0.65,1.5 -1.96,1.5 h -3.22 c -0.19,0 -0.3,0 -0.3,-0.19 0,-0.12 0.09,-0.12 0.29,-0.12 0.13,0 0.31,-0.01 0.43,-0.02 0.16,-0.02 0.22,-0.05 0.22,-0.16 0,-0.04 -0.01,-0.07 -0.04,-0.19 l -1.34,-5.33 c -0.1,-0.39 -0.11,-0.47 -0.9,-0.47 -0.17,0 -0.28,0 -0.28,-0.19 0,-0.12 0.12,-0.12 0.15,-0.12 0.28,0 0.98,0.04 1.26,0.04 0.21,0 0.43,-0.01 0.64,-0.01 0.22,0 0.44,-0.03 0.65,-0.03 0.07,0 0.2,0 0.2,0.2 0,0.11 -0.09,0.11 -0.28,0.11 -0.37,0 -0.65,0 -0.65,0.18 0,0.06 0.02,0.11 0.03,0.17 z"
         id="path5248" /></g>    <g
       style="font-style:normal;font-variant:normal;font-weight:normal;font-stretch:normal;letter-spacing:normal;word-spacing:normal;text-anchor:start;fill:none;stroke:#000000;stroke-linecap:butt;stroke-linejoin:miter;stroke-miterlimit:10.43299961;stroke-opacity:1;stroke-dasharray:none;stroke-dashoffset:0"
       ns0:preamble=""
       ns0:text="$(o_{1x},\\ o_{1y})$"
       word-spacing="normal"
       letter-spacing="normal"
       font-size-adjust="none"
       font-stretch="normal"
       font-weight="normal"
       font-variant="normal"
       font-style="normal"
       stroke-miterlimit="10.433"
       xml:space="preserve"
       transform="matrix(2.6727518,0,0,-2.5870069,-328.53028,2133.0494)"
       id="content"><path
         style="fill:#000000;stroke-width:0"
         inkscape:connector-curvature="0"
         id="path5353"
         d="m 226.73,704.74 -0.01,0.01 0,0 0,0 0,0.01 0,0 0,0 0,0.01 0,0 0,0 0,0.01 -0.01,0 0,0.01 0,0 -0.01,0.01 0,0 -0.01,0.01 0,0.01 -0.01,0 0,0.01 0,0 -0.01,0.01 0,0 0,0 -0.01,0.01 0,0 -0.01,0.01 0,0 -0.01,0.01 0,0 -0.01,0.01 0,0 -0.01,0.01 0,0.01 -0.01,0 0,0.01 -0.01,0.01 -0.01,0 0,0.01 -0.01,0.01 -0.01,0 -0.01,0.01 0,0.01 c -1.25,1.25 -1.57,3.13 -1.57,4.65 0,1.73 0.38,3.46 1.61,4.7 0.13,0.12 0.13,0.14 0.13,0.17 0,0.07 -0.05,0.1 -0.1,0.1 -0.1,0 -1,-0.68 -1.59,-1.94 -0.5,-1.09 -0.62,-2.2 -0.62,-3.03 0,-0.78 0.11,-1.98 0.65,-3.1 0.6,-1.22 1.46,-1.87 1.56,-1.87 0.05,0 0.1,0.03 0.1,0.1 z" /><path
         style="fill:#000000;stroke-width:0"
         inkscape:connector-curvature="0"
         id="path5355"
         d="m 231.97,709.84 0,0.09 -0.01,0.1 -0.01,0.09 -0.01,0.09 -0.02,0.08 -0.02,0.09 -0.02,0.08 -0.03,0.08 -0.03,0.07 -0.04,0.07 -0.03,0.07 -0.05,0.07 -0.04,0.07 -0.05,0.06 -0.05,0.06 -0.05,0.05 -0.05,0.06 -0.06,0.05 -0.06,0.04 -0.06,0.05 -0.07,0.04 -0.06,0.03 -0.07,0.04 -0.07,0.03 -0.08,0.03 -0.07,0.02 -0.08,0.02 -0.07,0.02 -0.08,0.01 -0.08,0.01 -0.09,0 -0.08,0.01 c -1.33,0 -2.67,-1.42 -2.67,-2.83 0,-0.98 0.67,-1.67 1.6,-1.67 l 0.01,0.21 c -0.43,0 -0.87,0.31 -0.87,1.09 0,0.48 0.26,1.56 0.58,2.06 0.49,0.77 1.06,0.92 1.34,0.92 0.58,0 0.88,-0.48 0.88,-1.08 0,-0.38 -0.2,-1.43 -0.58,-2.07 -0.35,-0.58 -0.9,-0.92 -1.35,-0.92 h 0 l -0.01,-0.21 c 1.32,0 2.66,1.37 2.66,2.82 z" /><path
         style="fill:#000000;stroke-width:0"
         inkscape:connector-curvature="0"
         id="path5357"
         d="m 234.47,710.05 0,0.01 0,0.01 0,0.01 0,0.01 0,0 0,0.01 0,0.01 0,0.01 0,0 0,0.01 0,0.01 0,0 0,0.01 0,0 -0.01,0.01 0,0 0,0.01 0,0 0,0.01 0,0.01 -0.01,0.01 0,0 0,0.01 -0.01,0.01 0,0 -0.01,0.01 0,0 -0.01,0 -0.01,0.01 -0.01,0 -0.01,0 0,0 -0.01,0 -0.01,0 0,0 -0.01,0.01 0,0 -0.01,0 0,0 -0.01,0 -0.01,0 -0.01,0 0,0 -0.01,0 -0.01,0 -0.01,0 0,0 -0.01,0 -0.01,0 -0.01,0 c -0.45,-0.44 -1.08,-0.45 -1.36,-0.45 v -0.25 c 0.16,0 0.62,0 1,0.2 v -3.55 c 0,-0.23 0,-0.32 -0.69,-0.32 h -0.27 v -0.25 c 0.13,0.01 0.99,0.03 1.24,0.03 0.22,0 1.1,-0.02 1.25,-0.03 v 0.25 h -0.26 c -0.7,0 -0.7,0.09 -0.7,0.32 z" /><path
         style="fill:#000000;stroke-width:0"
         inkscape:connector-curvature="0"
         id="path5359"
         d="m 237.84,706.37 -0.01,-0.02 0,-0.03 -0.01,-0.02 -0.01,-0.03 -0.01,-0.02 -0.01,-0.03 -0.02,-0.02 -0.01,-0.03 -0.01,-0.02 -0.02,-0.03 -0.02,-0.02 -0.01,-0.03 -0.02,-0.02 -0.02,-0.03 -0.02,-0.02 -0.02,-0.03 -0.02,-0.02 -0.02,-0.02 -0.02,-0.02 -0.03,-0.02 -0.02,-0.02 -0.03,-0.02 -0.02,-0.02 -0.03,-0.01 -0.03,-0.02 -0.03,-0.01 -0.03,-0.01 -0.03,-0.01 -0.03,0 -0.03,-0.01 -0.03,0 -0.03,0 c -0.02,0 -0.23,0 -0.38,0.09 0.29,0.09 0.31,0.34 0.31,0.39 0,0.15 -0.12,0.25 -0.28,0.25 -0.2,0 -0.4,-0.16 -0.4,-0.42 0,-0.35 0.39,-0.51 0.73,-0.51 0.32,0 0.61,0.2 0.78,0.49 0.17,-0.36 0.55,-0.49 0.83,-0.49 0.8,0 1.23,0.87 1.23,1.06 0,0.1 -0.09,0.1 -0.11,0.1 -0.1,0 -0.11,-0.04 -0.14,-0.12 -0.14,-0.48 -0.56,-0.84 -0.95,-0.84 -0.28,0 -0.43,0.18 -0.43,0.45 0,0.18 0.17,0.81 0.37,1.58 0.14,0.54 0.45,0.71 0.68,0.71 0.01,0 0.23,0 0.37,-0.09 -0.22,-0.07 -0.3,-0.26 -0.3,-0.39 0,-0.15 0.12,-0.25 0.28,-0.25 0.16,0 0.39,0.13 0.39,0.42 0,0.39 -0.45,0.51 -0.73,0.51 -0.34,0 -0.62,-0.23 -0.78,-0.5 -0.12,0.29 -0.44,0.5 -0.83,0.5 -0.78,0 -1.23,-0.86 -1.23,-1.07 0,-0.09 0.1,-0.09 0.12,-0.09 0.09,0 0.1,0.03 0.13,0.12 0.18,0.54 0.61,0.84 0.96,0.84 0.23,0 0.41,-0.12 0.41,-0.46 0,-0.13 -0.08,-0.48 -0.14,-0.72 z" /><path
         style="fill:#000000;stroke-width:0"
         inkscape:connector-curvature="0"
         id="path5361"
         d="m 243.14,707.14 0,0.06 0,0.05 0,0.06 -0.01,0.06 0,0.05 -0.01,0.05 -0.01,0.06 -0.01,0.04 -0.01,0.05 -0.02,0.05 -0.01,0.04 -0.02,0.04 -0.01,0.04 -0.02,0.04 -0.02,0.04 -0.02,0.03 -0.02,0.04 -0.02,0.03 -0.03,0.02 -0.02,0.03 -0.03,0.03 -0.02,0.02 -0.03,0.02 -0.03,0.02 -0.03,0.01 -0.03,0.02 -0.03,0.01 -0.04,0.01 -0.03,0.01 -0.03,0 -0.04,0.01 -0.03,0 c -0.33,0 -0.53,-0.25 -0.53,-0.53 0,-0.27 0.2,-0.53 0.53,-0.53 0.11,0 0.25,0.04 0.34,0.13 0.03,0.02 0.04,0.03 0.05,0.03 0.01,0 0.02,-0.01 0.02,-0.14 0,-0.74 -0.34,-1.34 -0.67,-1.66 -0.11,-0.11 -0.11,-0.13 -0.11,-0.16 0,-0.07 0.05,-0.11 0.1,-0.11 0.11,0 0.9,0.76 0.9,1.93 z" /><path
         style="fill:#000000;stroke-width:0"
         inkscape:connector-curvature="0"
         id="path5363"
         d="m 253.54,709.84 0,0.09 -0.01,0.1 -0.01,0.09 -0.01,0.09 -0.02,0.08 -0.02,0.09 -0.03,0.08 -0.02,0.08 -0.04,0.07 -0.03,0.07 -0.04,0.07 -0.04,0.07 -0.04,0.07 -0.05,0.06 -0.05,0.06 -0.05,0.05 -0.06,0.06 -0.05,0.05 -0.06,0.04 -0.07,0.05 -0.06,0.04 -0.07,0.03 -0.07,0.04 -0.07,0.03 -0.07,0.03 -0.07,0.02 -0.08,0.02 -0.08,0.02 -0.08,0.01 -0.08,0.01 -0.08,0 -0.08,0.01 c -1.34,0 -2.67,-1.42 -2.67,-2.83 0,-0.98 0.67,-1.67 1.59,-1.67 l 0.01,0.21 c -0.43,0 -0.86,0.31 -0.86,1.09 0,0.48 0.25,1.56 0.57,2.06 0.5,0.77 1.07,0.92 1.35,0.92 0.57,0 0.87,-0.48 0.87,-1.08 0,-0.38 -0.2,-1.43 -0.57,-2.07 -0.35,-0.58 -0.9,-0.92 -1.36,-0.92 h 0 l -0.01,-0.21 c 1.33,0 2.67,1.37 2.67,2.82 z" /><path
         style="fill:#000000;stroke-width:0"
         inkscape:connector-curvature="0"
         id="path5365"
         d="m 256.03,710.05 0,0.01 0,0.01 0,0.01 0,0.01 0,0 0,0.01 0,0.01 0,0.01 0,0 0,0.01 0,0.01 0,0 0,0.01 0,0 0,0.01 0,0 0,0.01 0,0 -0.01,0.01 0,0.01 0,0.01 0,0 -0.01,0.01 0,0.01 -0.01,0 0,0.01 -0.01,0 -0.01,0 0,0.01 -0.01,0 -0.01,0 -0.01,0 0,0 -0.01,0 -0.01,0 0,0.01 -0.01,0 0,0 -0.01,0 -0.01,0 0,0 -0.01,0 -0.01,0 0,0 -0.01,0 -0.01,0 -0.01,0 -0.01,0 -0.01,0 -0.01,0 c -0.44,-0.44 -1.07,-0.45 -1.36,-0.45 v -0.25 c 0.17,0 0.63,0 1.01,0.2 v -3.55 c 0,-0.23 0,-0.32 -0.7,-0.32 h -0.26 v -0.25 c 0.12,0.01 0.98,0.03 1.24,0.03 0.21,0 1.09,-0.02 1.24,-0.03 v 0.25 h -0.26 c -0.7,0 -0.7,0.09 -0.7,0.32 z" /><path
         style="fill:#000000;stroke-width:0"
         inkscape:connector-curvature="0"
         id="path5367"
         d="m 261.54,708.25 0.01,0.01 0,0 0,0.01 0,0 0,0 0,0.01 0,0.01 0.01,0 0,0.01 0,0.01 0,0 0,0.01 0,0 0,0.01 0.01,0 0,0.01 0,0 0,0.01 0,0 0,0 0,0.01 0,0 0,0 0,0.01 0,0.01 0,0 0,0.01 0,0 0,0.01 0,0 0,0.01 c 0,0.13 -0.11,0.22 -0.23,0.22 -0.07,0 -0.21,-0.04 -0.28,-0.17 -0.02,-0.04 -0.08,-0.26 -0.11,-0.4 l -0.15,-0.58 c -0.04,-0.17 -0.26,-1.04 -0.28,-1.12 -0.01,0 -0.31,-0.6 -0.86,-0.6 -0.47,0 -0.47,0.45 -0.47,0.57 0,0.38 0.16,0.82 0.37,1.35 0.08,0.23 0.12,0.31 0.12,0.43 0,0.33 -0.29,0.59 -0.66,0.59 -0.71,0 -1.02,-0.95 -1.02,-1.07 0,-0.09 0.1,-0.09 0.12,-0.09 0.09,0 0.1,0.04 0.12,0.11 0.18,0.58 0.48,0.85 0.75,0.85 0.12,0 0.18,-0.07 0.18,-0.24 0,-0.16 -0.06,-0.31 -0.1,-0.4 -0.33,-0.85 -0.4,-1.11 -0.4,-1.41 0,-0.12 0,-0.45 0.27,-0.67 0.21,-0.18 0.51,-0.22 0.7,-0.22 0.27,0 0.53,0.11 0.75,0.31 -0.09,-0.38 -0.16,-0.67 -0.46,-1.02 -0.18,-0.21 -0.46,-0.44 -0.83,-0.44 -0.05,0 -0.38,0 -0.52,0.23 0.37,0.04 0.37,0.37 0.37,0.38 0,0.22 -0.2,0.26 -0.27,0.26 -0.17,0 -0.4,-0.14 -0.4,-0.46 0,-0.35 0.33,-0.61 0.83,-0.61 0.7,0 1.56,0.55 1.77,1.41 z" /><path
         style="fill:#000000;stroke-width:0"
         inkscape:connector-curvature="0"
         id="path5369"
         d="m 265.34,709.61 0,0.07 -0.01,0.08 0,0.08 0,0.08 -0.01,0.17 -0.01,0.17 -0.02,0.18 -0.02,0.19 -0.02,0.2 -0.04,0.2 -0.04,0.2 -0.04,0.21 -0.06,0.21 -0.06,0.21 -0.07,0.21 -0.07,0.21 -0.05,0.11 -0.04,0.11 -0.05,0.1 -0.05,0.11 c -0.6,1.22 -1.45,1.87 -1.55,1.87 -0.06,0 -0.1,-0.04 -0.1,-0.1 0,-0.03 0,-0.05 0.19,-0.23 0.97,-0.99 1.54,-2.57 1.54,-4.64 0,-1.7 -0.37,-3.45 -1.6,-4.7 -0.13,-0.12 -0.13,-0.14 -0.13,-0.17 0,-0.06 0.04,-0.1 0.1,-0.1 0.1,0 0.99,0.68 1.58,1.94 0.51,1.09 0.63,2.19 0.63,3.03 z" /></g>    <g
       id="g5530"
       transform="matrix(2.6727518,0,0,-2.5870069,-494.52779,2266.5476)"
       xml:space="preserve"
       stroke-miterlimit="10.433"
       font-style="normal"
       font-variant="normal"
       font-weight="normal"
       font-stretch="normal"
       font-size-adjust="none"
       letter-spacing="normal"
       word-spacing="normal"
       ns0:text="$(o_{0x},\\ o_{0y})$"
       ns0:preamble=""
       style="font-style:normal;font-variant:normal;font-weight:normal;font-stretch:normal;letter-spacing:normal;word-spacing:normal;text-anchor:start;fill:none;stroke:#000000;stroke-linecap:butt;stroke-linejoin:miter;stroke-miterlimit:10.43299961;stroke-opacity:1;stroke-dasharray:none;stroke-dashoffset:0"><path
         style="fill:#000000;stroke-width:0"
         inkscape:connector-curvature="0"
         d="m 226.73,704.74 -0.01,0.01 0,0 0,0 0,0.01 0,0 0,0 0,0.01 0,0 0,0 0,0.01 -0.01,0 0,0.01 0,0 -0.01,0.01 0,0 -0.01,0.01 0,0.01 -0.01,0 0,0.01 0,0 -0.01,0.01 0,0 0,0 -0.01,0.01 0,0 -0.01,0.01 0,0 -0.01,0.01 0,0 -0.01,0.01 0,0 -0.01,0.01 0,0.01 -0.01,0 0,0.01 -0.01,0.01 -0.01,0 0,0.01 -0.01,0.01 -0.01,0 -0.01,0.01 0,0.01 c -1.25,1.25 -1.57,3.13 -1.57,4.65 0,1.73 0.38,3.46 1.61,4.7 0.13,0.12 0.13,0.14 0.13,0.17 0,0.07 -0.05,0.1 -0.1,0.1 -0.1,0 -1,-0.68 -1.59,-1.94 -0.5,-1.09 -0.62,-2.2 -0.62,-3.03 0,-0.78 0.11,-1.98 0.65,-3.1 0.6,-1.22 1.46,-1.87 1.56,-1.87 0.05,0 0.1,0.03 0.1,0.1 z"
         id="path5532" /><path
         style="fill:#000000;stroke-width:0"
         inkscape:connector-curvature="0"
         d="m 231.97,709.84 0,0.09 -0.01,0.1 -0.01,0.09 -0.01,0.09 -0.02,0.08 -0.02,0.09 -0.02,0.08 -0.03,0.08 -0.03,0.07 -0.04,0.07 -0.03,0.07 -0.05,0.07 -0.04,0.07 -0.05,0.06 -0.05,0.06 -0.05,0.05 -0.05,0.06 -0.06,0.05 -0.06,0.04 -0.06,0.05 -0.07,0.04 -0.06,0.03 -0.07,0.04 -0.07,0.03 -0.08,0.03 -0.07,0.02 -0.08,0.02 -0.07,0.02 -0.08,0.01 -0.08,0.01 -0.09,0 -0.08,0.01 c -1.33,0 -2.67,-1.42 -2.67,-2.83 0,-0.98 0.67,-1.67 1.6,-1.67 l 0.01,0.21 c -0.43,0 -0.87,0.31 -0.87,1.09 0,0.48 0.26,1.56 0.58,2.06 0.49,0.77 1.06,0.92 1.34,0.92 0.58,0 0.88,-0.48 0.88,-1.08 0,-0.38 -0.2,-1.43 -0.58,-2.07 -0.35,-0.58 -0.9,-0.92 -1.35,-0.92 h 0 l -0.01,-0.21 c 1.32,0 2.66,1.37 2.66,2.82 z"
         id="path5534" /><path
         style="fill:#000000;stroke-width:0"
         inkscape:connector-curvature="0"
         d="m 235.73,707.85 0,0.14 0,0.14 -0.01,0.13 -0.01,0.12 -0.01,0.13 -0.02,0.12 -0.01,0.11 -0.03,0.11 -0.02,0.11 -0.03,0.11 -0.03,0.1 -0.04,0.1 -0.04,0.1 -0.05,0.09 -0.05,0.1 -0.03,0.04 -0.03,0.05 c -0.22,0.32 -0.65,0.6 -1.21,0.6 v -0.2 c 0.38,0 0.74,-0.23 0.87,-0.63 0.11,-0.38 0.12,-0.88 0.12,-1.48 0,-0.52 0,-1.03 -0.09,-1.47 -0.14,-0.63 -0.62,-0.78 -0.9,-0.78 h 0 c -0.32,0 -0.74,0.18 -0.88,0.76 -0.1,0.4 -0.1,0.97 -0.1,1.49 0,0.51 0,1.04 0.11,1.42 0.14,0.55 0.59,0.69 0.87,0.69 v 0.2 c -1.61,0 -1.61,-1.9 -1.61,-2.4 0,-0.5 0,-2.36 1.61,-2.36 1.62,0 1.62,1.86 1.62,2.36 z"
         id="path5536" /><path
         style="fill:#000000;stroke-width:0"
         inkscape:connector-curvature="0"
         d="m 237.84,706.37 -0.01,-0.02 0,-0.03 -0.01,-0.02 -0.01,-0.03 -0.01,-0.02 -0.01,-0.03 -0.02,-0.02 -0.01,-0.03 -0.01,-0.02 -0.02,-0.03 -0.02,-0.02 -0.01,-0.03 -0.02,-0.02 -0.02,-0.03 -0.02,-0.02 -0.02,-0.03 -0.02,-0.02 -0.02,-0.02 -0.02,-0.02 -0.03,-0.02 -0.02,-0.02 -0.03,-0.02 -0.02,-0.02 -0.03,-0.01 -0.03,-0.02 -0.03,-0.01 -0.03,-0.01 -0.03,-0.01 -0.03,0 -0.03,-0.01 -0.03,0 -0.03,0 c -0.02,0 -0.23,0 -0.38,0.09 0.29,0.09 0.31,0.34 0.31,0.39 0,0.15 -0.12,0.25 -0.28,0.25 -0.2,0 -0.4,-0.16 -0.4,-0.42 0,-0.35 0.39,-0.51 0.73,-0.51 0.32,0 0.61,0.2 0.78,0.49 0.17,-0.36 0.55,-0.49 0.83,-0.49 0.8,0 1.23,0.87 1.23,1.06 0,0.1 -0.09,0.1 -0.11,0.1 -0.1,0 -0.11,-0.04 -0.14,-0.12 -0.14,-0.48 -0.56,-0.84 -0.95,-0.84 -0.28,0 -0.43,0.18 -0.43,0.45 0,0.18 0.17,0.81 0.37,1.58 0.14,0.54 0.45,0.71 0.68,0.71 0.01,0 0.23,0 0.37,-0.09 -0.22,-0.07 -0.3,-0.26 -0.3,-0.39 0,-0.15 0.12,-0.25 0.28,-0.25 0.16,0 0.39,0.13 0.39,0.42 0,0.39 -0.45,0.51 -0.73,0.51 -0.34,0 -0.62,-0.23 -0.78,-0.5 -0.12,0.29 -0.44,0.5 -0.83,0.5 -0.78,0 -1.23,-0.86 -1.23,-1.07 0,-0.09 0.1,-0.09 0.12,-0.09 0.09,0 0.1,0.03 0.13,0.12 0.18,0.54 0.61,0.84 0.96,0.84 0.23,0 0.41,-0.12 0.41,-0.46 0,-0.13 -0.08,-0.48 -0.14,-0.72 z"
         id="path5538" /><path
         style="fill:#000000;stroke-width:0"
         inkscape:connector-curvature="0"
         d="m 243.14,707.14 0,0.06 0,0.05 0,0.06 -0.01,0.06 0,0.05 -0.01,0.05 -0.01,0.06 -0.01,0.04 -0.01,0.05 -0.02,0.05 -0.01,0.04 -0.02,0.04 -0.01,0.04 -0.02,0.04 -0.02,0.04 -0.02,0.03 -0.02,0.04 -0.02,0.03 -0.03,0.02 -0.02,0.03 -0.03,0.03 -0.02,0.02 -0.03,0.02 -0.03,0.02 -0.03,0.01 -0.03,0.02 -0.03,0.01 -0.04,0.01 -0.03,0.01 -0.03,0 -0.04,0.01 -0.03,0 c -0.33,0 -0.53,-0.25 -0.53,-0.53 0,-0.27 0.2,-0.53 0.53,-0.53 0.11,0 0.25,0.04 0.34,0.13 0.03,0.02 0.04,0.03 0.05,0.03 0.01,0 0.02,-0.01 0.02,-0.14 0,-0.74 -0.34,-1.34 -0.67,-1.66 -0.11,-0.11 -0.11,-0.13 -0.11,-0.16 0,-0.07 0.05,-0.11 0.1,-0.11 0.11,0 0.9,0.76 0.9,1.93 z"
         id="path5540" /><path
         style="fill:#000000;stroke-width:0"
         inkscape:connector-curvature="0"
         d="m 253.54,709.84 0,0.09 -0.01,0.1 -0.01,0.09 -0.01,0.09 -0.02,0.08 -0.02,0.09 -0.03,0.08 -0.02,0.08 -0.04,0.07 -0.03,0.07 -0.04,0.07 -0.04,0.07 -0.04,0.07 -0.05,0.06 -0.05,0.06 -0.05,0.05 -0.06,0.06 -0.05,0.05 -0.06,0.04 -0.07,0.05 -0.06,0.04 -0.07,0.03 -0.07,0.04 -0.07,0.03 -0.07,0.03 -0.07,0.02 -0.08,0.02 -0.08,0.02 -0.08,0.01 -0.08,0.01 -0.08,0 -0.08,0.01 c -1.34,0 -2.67,-1.42 -2.67,-2.83 0,-0.98 0.67,-1.67 1.59,-1.67 l 0.01,0.21 c -0.43,0 -0.86,0.31 -0.86,1.09 0,0.48 0.25,1.56 0.57,2.06 0.5,0.77 1.07,0.92 1.35,0.92 0.57,0 0.87,-0.48 0.87,-1.08 0,-0.38 -0.2,-1.43 -0.57,-2.07 -0.35,-0.58 -0.9,-0.92 -1.36,-0.92 h 0 l -0.01,-0.21 c 1.33,0 2.67,1.37 2.67,2.82 z"
         id="path5542" /><path
         style="fill:#000000;stroke-width:0"
         inkscape:connector-curvature="0"
         d="m 257.3,707.85 -0.01,0.14 0,0.14 -0.01,0.13 0,0.12 -0.02,0.13 -0.01,0.12 -0.02,0.11 -0.02,0.11 -0.03,0.11 -0.03,0.11 -0.03,0.1 -0.04,0.1 -0.04,0.1 -0.05,0.09 -0.05,0.1 -0.03,0.04 -0.03,0.05 c -0.21,0.32 -0.64,0.6 -1.2,0.6 v -0.2 c 0.37,0 0.74,-0.23 0.86,-0.63 0.11,-0.38 0.12,-0.88 0.12,-1.48 0,-0.52 0,-1.03 -0.09,-1.47 -0.14,-0.63 -0.61,-0.78 -0.89,-0.78 h 0 c -0.32,0 -0.75,0.18 -0.89,0.76 -0.09,0.4 -0.09,0.97 -0.09,1.49 0,0.51 0,1.04 0.1,1.42 0.15,0.55 0.59,0.69 0.88,0.69 v 0.2 c -1.62,0 -1.62,-1.9 -1.62,-2.4 0,-0.5 0,-2.36 1.62,-2.36 1.62,0 1.62,1.86 1.62,2.36 z"
         id="path5544" /><path
         style="fill:#000000;stroke-width:0"
         inkscape:connector-curvature="0"
         d="m 261.54,708.25 0.01,0.01 0,0 0,0.01 0,0 0,0 0,0.01 0,0.01 0.01,0 0,0.01 0,0.01 0,0 0,0.01 0,0 0,0.01 0.01,0 0,0.01 0,0 0,0.01 0,0 0,0 0,0.01 0,0 0,0 0,0.01 0,0.01 0,0 0,0.01 0,0 0,0.01 0,0 0,0.01 c 0,0.13 -0.11,0.22 -0.23,0.22 -0.07,0 -0.21,-0.04 -0.28,-0.17 -0.02,-0.04 -0.08,-0.26 -0.11,-0.4 l -0.15,-0.58 c -0.04,-0.17 -0.26,-1.04 -0.28,-1.12 -0.01,0 -0.31,-0.6 -0.86,-0.6 -0.47,0 -0.47,0.45 -0.47,0.57 0,0.38 0.16,0.82 0.37,1.35 0.08,0.23 0.12,0.31 0.12,0.43 0,0.33 -0.29,0.59 -0.66,0.59 -0.71,0 -1.02,-0.95 -1.02,-1.07 0,-0.09 0.1,-0.09 0.12,-0.09 0.09,0 0.1,0.04 0.12,0.11 0.18,0.58 0.48,0.85 0.75,0.85 0.12,0 0.18,-0.07 0.18,-0.24 0,-0.16 -0.06,-0.31 -0.1,-0.4 -0.33,-0.85 -0.4,-1.11 -0.4,-1.41 0,-0.12 0,-0.45 0.27,-0.67 0.21,-0.18 0.51,-0.22 0.7,-0.22 0.27,0 0.53,0.11 0.75,0.31 -0.09,-0.38 -0.16,-0.67 -0.46,-1.02 -0.18,-0.21 -0.46,-0.44 -0.83,-0.44 -0.05,0 -0.38,0 -0.52,0.23 0.37,0.04 0.37,0.37 0.37,0.38 0,0.22 -0.2,0.26 -0.27,0.26 -0.17,0 -0.4,-0.14 -0.4,-0.46 0,-0.35 0.33,-0.61 0.83,-0.61 0.7,0 1.56,0.55 1.77,1.41 z"
         id="path5546" /><path
         style="fill:#000000;stroke-width:0"
         inkscape:connector-curvature="0"
         d="m 265.34,709.61 0,0.07 -0.01,0.08 0,0.08 0,0.08 -0.01,0.17 -0.01,0.17 -0.02,0.18 -0.02,0.19 -0.02,0.2 -0.04,0.2 -0.04,0.2 -0.04,0.21 -0.06,0.21 -0.06,0.21 -0.07,0.21 -0.07,0.21 -0.05,0.11 -0.04,0.11 -0.05,0.1 -0.05,0.11 c -0.6,1.22 -1.45,1.87 -1.55,1.87 -0.06,0 -0.1,-0.04 -0.1,-0.1 0,-0.03 0,-0.05 0.19,-0.23 0.97,-0.99 1.54,-2.57 1.54,-4.64 0,-1.7 -0.37,-3.45 -1.6,-4.7 -0.13,-0.12 -0.13,-0.14 -0.13,-0.17 0,-0.06 0.04,-0.1 0.1,-0.1 0.1,0 0.99,0.68 1.58,1.94 0.51,1.09 0.63,2.19 0.63,3.03 z"
         id="path5548" /></g>    <flowRoot
       transform="matrix(0.81371234,0,0,0.78760752,113.82651,166.47557)"
       style="font-size:24px;font-style:normal;font-variant:normal;font-weight:normal;font-stretch:normal;line-height:125%;letter-spacing:0px;word-spacing:0px;fill:#000000;fill-opacity:1;stroke:none;font-family:'IPAex明朝';-inkscape-font-specification:'IPAex明朝'"
       id="flowRoot5616"
       xml:space="preserve"><flowRegion
         id="flowRegion5618"><rect
           style="font-size:24px;font-style:normal;font-variant:normal;font-weight:normal;font-stretch:normal;font-family:'IPAex明朝';-inkscape-font-specification:'IPAex明朝'"
           y="349.29602"
           x="-29.294424"
           height="113.06616"
           width="289.29443"
           id="rect5620" /></flowRegion><flowPara
         id="flowPara5622">基準座標系 原点</flowPara></flowRoot>    <flowRoot
       transform="matrix(0.81371234,0,0,0.78760752,273.82651,36.475574)"
       style="font-size:24px;font-style:normal;font-variant:normal;font-weight:normal;font-stretch:normal;line-height:125%;letter-spacing:0px;word-spacing:0px;fill:#000000;fill-opacity:1;stroke:none;font-family:'IPAex明朝';-inkscape-font-specification:'IPAex明朝'"
       id="flowRoot5616-3"
       xml:space="preserve"><flowRegion
         id="flowRegion5618-7"><rect
           style="font-size:24px;font-style:normal;font-variant:normal;font-weight:normal;font-stretch:normal;font-family:'IPAex明朝';-inkscape-font-specification:'IPAex明朝'"
           y="349.29602"
           x="-29.294424"
           height="113.06616"
           width="289.29443"
           id="rect5620-1" /></flowRegion><flowPara
         id="flowPara5622-3">任意の座標系 原点</flowPara></flowRoot>    <flowRoot
       xml:space="preserve"
       id="flowRoot5806"
       style="fill:black;stroke:none;stroke-opacity:1;stroke-width:1px;stroke-linejoin:miter;stroke-linecap:butt;fill-opacity:1;font-family:Sans;font-style:normal;font-weight:normal;font-size:40px;line-height:125%;letter-spacing:0px;word-spacing:0px"><flowRegion
         id="flowRegion5808"><rect
           id="rect5810"
           width="317.1879"
           height="110.10663"
           x="362.64478"
           y="204.84419" /></flowRegion><flowPara
         id="flowPara5812" /></flowRoot>    <flowRoot
       transform="matrix(0.81371234,0,0,0.78760752,503.82651,-130.05941)"
       style="font-size:20px;font-style:normal;font-variant:normal;font-weight:normal;font-stretch:normal;line-height:125%;letter-spacing:0px;word-spacing:0px;fill:#000000;fill-opacity:1;stroke:none;font-family:'IPAex明朝';-inkscape-font-specification:'IPAex明朝'"
       id="flowRoot5616-3-6"
       xml:space="preserve"><flowRegion
         id="flowRegion5618-7-8"><rect
           style="font-size:20px;font-style:normal;font-variant:normal;font-weight:normal;font-stretch:normal;font-family:'IPAex明朝';-inkscape-font-specification:'IPAex明朝'"
           y="349.29602"
           x="-29.294424"
           height="116.38171"
           width="390.01318"
           id="rect5620-1-6" /></flowRegion><flowPara
         id="flowPara5622-3-4">任軸の   軸方向を表す</flowPara><flowPara
         id="flowPara6069">単位ベクトル</flowPara></flowRoot>    <flowRoot
       transform="matrix(0.81371234,0,0,0.78760752,78.826514,-225.05941)"
       style="font-size:20px;font-style:normal;font-variant:normal;font-weight:normal;font-stretch:normal;line-height:125%;letter-spacing:0px;word-spacing:0px;fill:#000000;fill-opacity:1;stroke:none;font-family:'IPAex明朝';-inkscape-font-specification:'IPAex明朝'"
       id="flowRoot5616-3-6-5"
       xml:space="preserve"><flowRegion
         id="flowRegion5618-7-8-4"><rect
           style="font-size:20px;font-style:normal;font-variant:normal;font-weight:normal;font-stretch:normal;font-family:'IPAex明朝';-inkscape-font-specification:'IPAex明朝'"
           y="349.29602"
           x="-29.294424"
           height="116.38171"
           width="390.01318"
           id="rect5620-1-6-3" /></flowRegion><flowPara
         id="flowPara5622-3-4-4">任軸の   軸方向を表す単位ベクトル</flowPara></flowRoot>    <g
       style="font-style:normal;font-variant:normal;font-weight:normal;font-stretch:normal;letter-spacing:normal;word-spacing:normal;text-anchor:start;fill:none;stroke:#000000;stroke-linecap:butt;stroke-linejoin:miter;stroke-miterlimit:10.43299961;stroke-opacity:1;stroke-dasharray:none;stroke-dashoffset:0"
       id="g5972"
       transform="matrix(2.3896609,0,0,-2.3896609,-506.73177,1765.5405)"
       xml:space="preserve"
       stroke-miterlimit="10.433"
       font-style="normal"
       font-variant="normal"
       font-weight="normal"
       font-stretch="normal"
       font-size-adjust="none"
       letter-spacing="normal"
       word-spacing="normal"
       ns0:text="$x y$"
       ns0:preamble=""><path
         style="fill:#000000;stroke-width:0"
         inkscape:connector-curvature="0"
         d="m 436.72282,673.98827 0,0.0254 0.008,0.0254 0.008,0.0254 0.008,0.0338 0.008,0.0339 0.008,0.0339 0.008,0.0339 0.0169,0.0423 0.008,0.0339 0.0169,0.0423 0.0169,0.0423 0.0169,0.0423 0.0169,0.0423 0.0254,0.0423 0.0169,0.0423 0.0254,0.0423 0.0254,0.0423 0.0254,0.0339 0.0254,0.0423 0.0339,0.0339 0.0338,0.0423 0.0339,0.0339 0.0339,0.0338 0.0339,0.0254 0.0423,0.0254 0.0423,0.0254 0.0169,0.008 0.0254,0.0169 0.0169,0.008 0.0254,0.008 0.0254,0.008 0.0254,0 0.0254,0.008 0.0169,0.008 0.0339,0 0.0254,0 0.0254,0.008 0.0254,0 c 0.0423,0 0.2454,0 0.42311,-0.11 -0.23694,-0.0423 -0.40618,-0.25387 -0.40618,-0.45696 0,-0.13539 0.0931,-0.29617 0.32156,-0.29617 0.18616,0 0.45695,0.15232 0.45695,0.4908 0,0.44003 -0.49926,0.5585 -0.78698,0.5585 -0.4908,0 -0.78697,-0.44849 -0.88005,-0.64312 -0.21156,0.5585 -0.66851,0.64312 -0.91391,0.64312 -0.8716,0 -1.35394,-1.09161 -1.35394,-1.2947 0,-0.0846 0.0846,-0.0846 0.10155,-0.0846 0.0677,0 0.0931,0.0169 0.11001,0.0931 0.28771,0.88852 0.83774,1.10007 1.12546,1.10007 0.16078,0 0.45695,-0.0761 0.45695,-0.56696 0,-0.26232 -0.14386,-0.82082 -0.45695,-1.99705 -0.1354,-0.52465 -0.43157,-0.88006 -0.79544,-0.88006 -0.0508,0 -0.2454,0 -0.42311,0.11001 0.21156,0.0423 0.39772,0.22001 0.39772,0.45695 0,0.22848 -0.18616,0.29618 -0.31309,0.29618 -0.25387,0 -0.46542,-0.22002 -0.46542,-0.49081 0,-0.38925 0.4231,-0.55003 0.79544,-0.55003 0.55003,0 0.85467,0.58388 0.88005,0.63465 0.10155,-0.31309 0.40619,-0.63465 0.90545,-0.63465 0.87159,0 1.35393,1.08315 1.35393,1.2947 0,0.0846 -0.0761,0.0846 -0.10154,0.0846 -0.0762,0 -0.0931,-0.0423 -0.11001,-0.0931 -0.27925,-0.90545 -0.85467,-1.10854 -1.12546,-1.10854 -0.32156,0 -0.45695,0.27079 -0.45695,0.5585 0,0.18617 0.0508,0.37233 0.14386,0.7362 z"
         id="path5974" /><path
         style="fill:#000000;stroke-width:0"
         inkscape:connector-curvature="0"
         d="m 260.16129,714.19963 0,0.008 0,0 0.008,0.008 0,0 0,0.0169 0,0.008 0.008,0.008 0,0.008 0,0.008 0,0 0.008,0.008 0,0.008 0,0.008 0,0.008 0,0 0,0.008 0.008,0 0,0.008 0,0.008 0,0 0,0.008 0,0 0,0.008 0,0.008 0,0.008 0,0.008 0,0.008 0,0.008 0,0 0,0.008 c 0,0.15232 -0.11847,0.22848 -0.2454,0.22848 -0.0846,0 -0.22002,-0.0508 -0.29618,-0.17771 -0.0169,-0.0423 -0.0846,-0.30463 -0.11,-0.45695 -0.0677,-0.22001 -0.11847,-0.44003 -0.16925,-0.66851 l -0.38079,-1.51471 c -0.0339,-0.12693 -0.39772,-0.71928 -0.95622,-0.71928 -0.4231,0 -0.51618,0.37233 -0.51618,0.68543 0,0.38926 0.14385,0.90545 0.4231,1.65011 0.13539,0.33848 0.16924,0.43157 0.16924,0.60081 0,0.38079 -0.26232,0.69389 -0.68543,0.69389 -0.8039,0 -1.11699,-1.21854 -1.11699,-1.2947 0,-0.0846 0.0846,-0.0846 0.10154,-0.0846 0.0846,0 0.0931,0.0169 0.13539,0.15232 0.22848,0.78697 0.56696,1.04083 0.85468,1.04083 0.0677,0 0.21155,0 0.21155,-0.27078 0,-0.21156 -0.0846,-0.43157 -0.14386,-0.59235 -0.33848,-0.88852 -0.4908,-1.37086 -0.4908,-1.76012 0,-0.75312 0.53311,-0.99852 1.02391,-0.99852 0.33003,0 0.61774,0.13539 0.85468,0.37233 -0.11001,-0.43157 -0.21156,-0.84621 -0.55004,-1.2947 -0.22001,-0.28771 -0.54157,-0.52465 -0.92237,-0.52465 -0.11847,0 -0.49926,0.0254 -0.64312,0.34695 0.1354,0 0.2454,0 0.36387,0.10154 0.0846,0.0762 0.16924,0.18617 0.16924,0.34695 0,0.26232 -0.22847,0.29617 -0.31309,0.29617 -0.19463,0 -0.47388,-0.13539 -0.47388,-0.55004 0,-0.41464 0.37233,-0.72774 0.89698,-0.72774 0.86314,0 1.73473,0.76159 1.97167,1.70935 z"
         id="path5976" /></g>    <path
       sodipodi:nodetypes="ccc"
       inkscape:connector-curvature="0"
       id="path6097"
       d="m 450,202.36218 c 0,0 40,25 50,25 l -160,-25"
       style="fill:none;stroke:#000000;stroke-width:1px;stroke-linecap:butt;stroke-linejoin:miter;stroke-opacity:1;marker-start:url(#Arrow1Mstart-9);marker-end:url(#Arrow1Mend-6)" />
    <flowRoot
       transform="translate(-40.71875,-7.0098877)"
       style="font-size:40px;font-style:normal;font-weight:normal;line-height:125%;letter-spacing:0px;word-spacing:0px;fill:#000000;fill-opacity:1;stroke:none;font-family:Sans"
       id="flowRoot6479"
       xml:space="preserve"><flowRegion
         id="flowRegion6481"><rect
           y="222.36218"
           x="545.71429"
           height="60"
           width="235.71428"
           id="rect6483" /></flowRegion><flowPara
         style="font-size:20px;font-style:normal;font-variant:normal;font-weight:normal;font-stretch:normal;font-family:'IPAex明朝';-inkscape-font-specification:'IPAex明朝'"
         id="flowPara6485">内積の計算</flowPara><flowPara
         id="flowPara6489"
         style="font-size:20px;font-style:normal;font-variant:normal;font-weight:normal;font-stretch:normal;font-family:'IPAex明朝';-inkscape-font-specification:'IPAex明朝'">で垂線の足を出す</flowPara></flowRoot>    <path
       inkscape:connector-curvature="0"
       id="path6487"
       d="m 321,274.36218 113,-66"
       style="fill:none;stroke:#00d400;stroke-width:4;stroke-linecap:butt;stroke-linejoin:miter;stroke-opacity:1;stroke-miterlimit:4;stroke-dasharray:none" />
    <g
       style="font-style:normal;font-variant:normal;font-weight:normal;font-stretch:normal;letter-spacing:normal;word-spacing:normal;text-anchor:start;fill:none;stroke:#000000;stroke-linecap:butt;stroke-linejoin:miter;stroke-miterlimit:10.43299961;stroke-opacity:1;stroke-dasharray:none;stroke-dashoffset:0"
       ns0:preamble=""
       ns0:text="$i(i_x,\\ i_y)$"
       text-anchor="start"
       word-spacing="normal"
       letter-spacing="normal"
       font-size-adjust="none"
       font-stretch="normal"
       font-weight="normal"
       font-variant="normal"
       font-style="normal"
       fill-opacity="1"
       fill-rule="evenodd"
       fill="none"
       stroke-opacity="1"
       stroke-dashoffset="0"
       stroke-dasharray="none"
       stroke-miterlimit="10.433"
       stroke-linejoin="miter"
       stroke-linecap="butt"
       stroke="black"
       xml:space="preserve"
       transform="matrix(2.6727518,0,0,-2.5870069,-134.77885,1963.6291)"
       id="g6583"><path
         id="path6585"
         fill="black"
         stroke-width="0"
         d="M226.26,713.33 L226.26,713.35 L226.26,713.37 L226.25,713.39 L226.25,713.41 L226.25,713.42 L226.24,713.44 L226.24,713.46 L226.23,713.47 L226.23,713.49 L226.22,713.5 L226.21,713.52 L226.2,713.53 L226.19,713.55 L226.18,713.56 L226.17,713.57 L226.16,713.59 L226.15,713.6 L226.13,713.61 L226.12,713.62 L226.11,713.63 L226.09,713.64 L226.08,713.65 L226.06,713.66 L226.04,713.66 L226.03,713.67 L226.01,713.68 L225.99,713.68 L225.97,713.68 L225.95,713.69 L225.93,713.69 L225.91,713.69 L225.89,713.69 C225.62,713.69,225.35,713.43,225.35,713.16 C225.35,712.98,225.49,712.81,225.73,712.81 C225.96,712.81,226.26,713.04,226.26,713.33 Z " /><path
         id="path6587"
         fill="black"
         stroke-width="0"
         d="M225.5,709.6 L225.51,709.62 L225.52,709.65 L225.53,709.67 L225.54,709.69 L225.55,709.72 L225.56,709.74 L225.56,709.75 L225.57,709.77 L225.58,709.79 L225.59,709.81 L225.59,709.82 L225.6,709.84 L225.6,709.85 L225.61,709.87 L225.62,709.89 L225.63,709.92 L225.64,709.95 L225.64,709.97 L225.65,709.98 L225.66,710 L225.66,710.01 L225.67,710.03 L225.67,710.05 L225.68,710.07 L225.69,710.08 L225.69,710.11 L225.7,710.13 L225.71,710.15 L225.72,710.17 C225.8,710.37,225.85,710.51,225.85,710.7 C225.85,711.15,225.53,711.52,225.03,711.52 C224.1,711.52,223.72,710.08,223.72,709.99 C223.72,709.89,223.82,709.89,223.84,709.89 C223.94,709.89,223.95,709.91,224,710.07 C224.27,711,224.67,711.3,225,711.3 C225.08,711.3,225.25,711.3,225.25,710.98 C225.25,710.77,225.18,710.56,225.14,710.46 C225.06,710.2,224.62,709.05,224.46,708.62 C224.36,708.37,224.23,708.04,224.23,707.83 C224.23,707.36,224.57,707.02,225.04,707.02 C225.98,707.02,226.35,708.46,226.35,708.55 C226.35,708.65,226.26,708.65,226.23,708.65 C226.13,708.65,226.13,708.61,226.08,708.47 C225.9,707.84,225.57,707.23,225.06,707.23 C224.9,707.23,224.82,707.33,224.82,707.56 C224.82,707.81,224.88,707.95,225.11,708.55 Z " /><path
         id="path6589"
         fill="black"
         stroke-width="0"
         d="M230.16,704.74 L230.16,704.75 L230.16,704.75 L230.16,704.75 L230.16,704.76 L230.16,704.76 L230.15,704.76 L230.15,704.77 L230.15,704.77 L230.15,704.77 L230.15,704.78 L230.15,704.78 L230.14,704.79 L230.14,704.79 L230.14,704.8 L230.13,704.8 L230.13,704.81 L230.12,704.82 L230.12,704.82 L230.11,704.83 L230.11,704.83 L230.11,704.84 L230.1,704.84 L230.1,704.84 L230.09,704.85 L230.09,704.85 L230.09,704.86 L230.08,704.86 L230.08,704.87 L230.07,704.87 L230.07,704.88 L230.06,704.88 L230.06,704.89 L230.05,704.9 L230.04,704.9 L230.04,704.91 L230.03,704.92 L230.02,704.92 L230.02,704.93 L230.01,704.94 L230,704.94 L230,704.95 L229.99,704.96 C228.74,706.21,228.43,708.09,228.43,709.61 C228.43,711.34,228.8,713.07,230.03,714.31 C230.16,714.43,230.16,714.45,230.16,714.48 C230.16,714.55,230.12,714.58,230.06,714.58 C229.96,714.58,229.06,713.9,228.48,712.64 C227.97,711.55,227.85,710.44,227.85,709.61 C227.85,708.83,227.96,707.63,228.51,706.51 C229.1,705.29,229.96,704.64,230.06,704.64 C230.12,704.64,230.16,704.67,230.16,704.74 Z " /><path
         id="path6591"
         fill="black"
         stroke-width="0"
         d="M233.57,713.33 L233.56,713.35 L233.56,713.37 L233.56,713.39 L233.56,713.41 L233.55,713.42 L233.55,713.44 L233.55,713.46 L233.54,713.47 L233.53,713.49 L233.53,713.5 L233.52,713.52 L233.51,713.53 L233.5,713.55 L233.49,713.56 L233.48,713.57 L233.47,713.59 L233.45,713.6 L233.44,713.61 L233.43,713.62 L233.41,713.63 L233.4,713.64 L233.38,713.65 L233.37,713.66 L233.35,713.66 L233.33,713.67 L233.32,713.68 L233.3,713.68 L233.28,713.68 L233.26,713.69 L233.24,713.69 L233.22,713.69 L233.2,713.69 C232.93,713.69,232.66,713.43,232.66,713.16 C232.66,712.98,232.8,712.81,233.04,712.81 C233.27,712.81,233.57,713.04,233.57,713.33 Z " /><path
         id="path6593"
         fill="black"
         stroke-width="0"
         d="M232.81,709.6 L232.82,709.62 L232.83,709.65 L232.84,709.67 L232.85,709.69 L232.86,709.72 L232.86,709.74 L232.87,709.75 L232.88,709.77 L232.89,709.79 L232.89,709.81 L232.9,709.82 L232.9,709.84 L232.91,709.85 L232.91,709.87 L232.93,709.89 L232.94,709.92 L232.95,709.95 L232.95,709.97 L232.96,709.98 L232.96,710 L232.97,710.01 L232.97,710.03 L232.98,710.05 L232.99,710.07 L232.99,710.08 L233,710.11 L233.01,710.13 L233.02,710.15 L233.03,710.17 C233.11,710.37,233.16,710.51,233.16,710.7 C233.16,711.15,232.84,711.52,232.34,711.52 C231.41,711.52,231.03,710.08,231.03,709.99 C231.03,709.89,231.13,709.89,231.15,709.89 C231.25,709.89,231.26,709.91,231.31,710.07 C231.57,711,231.97,711.3,232.31,711.3 C232.39,711.3,232.56,711.3,232.56,710.98 C232.56,710.77,232.49,710.56,232.45,710.46 C232.37,710.2,231.92,709.05,231.76,708.62 C231.66,708.37,231.54,708.04,231.54,707.83 C231.54,707.36,231.87,707.02,232.35,707.02 C233.29,707.02,233.65,708.46,233.65,708.55 C233.65,708.65,233.57,708.65,233.54,708.65 C233.43,708.65,233.43,708.61,233.38,708.47 C233.21,707.84,232.88,707.23,232.37,707.23 C232.2,707.23,232.13,707.33,232.13,707.56 C232.13,707.81,232.19,707.95,232.42,708.55 Z " /><path
         id="path6595"
         fill="black"
         stroke-width="0"
         d="M235.9,706.37 L235.9,706.35 L235.89,706.32 L235.88,706.3 L235.87,706.27 L235.86,706.25 L235.85,706.22 L235.84,706.2 L235.82,706.17 L235.81,706.15 L235.79,706.12 L235.78,706.1 L235.76,706.07 L235.74,706.05 L235.73,706.02 L235.71,706 L235.69,705.97 L235.66,705.95 L235.64,705.93 L235.62,705.91 L235.6,705.89 L235.57,705.87 L235.55,705.85 L235.52,705.83 L235.49,705.82 L235.47,705.8 L235.44,705.79 L235.41,705.78 L235.38,705.77 L235.35,705.77 L235.32,705.76 L235.28,705.76 L235.25,705.76 C235.23,705.76,235.02,705.76,234.87,705.85 C235.16,705.94,235.18,706.19,235.18,706.24 C235.18,706.39,235.06,706.49,234.9,706.49 C234.71,706.49,234.51,706.33,234.51,706.07 C234.51,705.72,234.9,705.56,235.24,705.56 C235.56,705.56,235.84,705.76,236.02,706.05 C236.18,705.69,236.57,705.56,236.85,705.56 C237.65,705.56,238.07,706.43,238.07,706.62 C238.07,706.72,237.98,706.72,237.96,706.72 C237.86,706.72,237.85,706.68,237.83,706.6 C237.68,706.12,237.26,705.76,236.87,705.76 C236.6,705.76,236.45,705.94,236.45,706.21 C236.45,706.39,236.62,707.02,236.81,707.79 C236.95,708.33,237.26,708.5,237.49,708.5 C237.51,708.5,237.72,708.5,237.87,708.41 C237.65,708.34,237.56,708.15,237.56,708.02 C237.56,707.87,237.68,707.77,237.84,707.77 C238,707.77,238.23,707.9,238.23,708.19 C238.23,708.58,237.79,708.7,237.51,708.7 C237.16,708.7,236.88,708.47,236.73,708.2 C236.6,708.49,236.28,708.7,235.89,708.7 C235.11,708.7,234.67,707.84,234.67,707.63 C234.67,707.54,234.76,707.54,234.78,707.54 C234.87,707.54,234.88,707.57,234.92,707.66 C235.09,708.2,235.53,708.5,235.87,708.5 C236.1,708.5,236.29,708.38,236.29,708.04 C236.29,707.91,236.21,707.56,236.14,707.32 Z " /><path
         id="path6597"
         fill="black"
         stroke-width="0"
         d="M241.21,707.14 L241.21,707.2 L241.2,707.25 L241.2,707.31 L241.2,707.37 L241.19,707.42 L241.18,707.47 L241.17,707.53 L241.16,707.57 L241.15,707.62 L241.14,707.67 L241.12,707.71 L241.11,707.75 L241.09,707.79 L241.07,707.83 L241.05,707.87 L241.03,707.9 L241.01,707.94 L240.99,707.97 L240.97,707.99 L240.94,708.02 L240.92,708.05 L240.89,708.07 L240.86,708.09 L240.83,708.11 L240.8,708.12 L240.77,708.14 L240.74,708.15 L240.71,708.16 L240.68,708.17 L240.64,708.17 L240.61,708.18 L240.57,708.18 C240.24,708.18,240.04,707.93,240.04,707.65 C240.04,707.38,240.24,707.12,240.57,707.12 C240.69,707.12,240.82,707.16,240.92,707.25 C240.95,707.27,240.96,707.28,240.97,707.28 C240.98,707.28,240.99,707.27,240.99,707.14 C240.99,706.4,240.64,705.8,240.31,705.48 C240.2,705.37,240.2,705.35,240.2,705.32 C240.2,705.25,240.25,705.21,240.3,705.21 C240.41,705.21,241.21,705.97,241.21,707.14 Z " /><path
         id="path6599"
         fill="black"
         stroke-width="0"
         d="M249.76,713.33 L249.76,713.35 L249.76,713.37 L249.76,713.39 L249.76,713.41 L249.75,713.42 L249.75,713.44 L249.74,713.46 L249.74,713.47 L249.73,713.49 L249.72,713.5 L249.71,713.52 L249.71,713.53 L249.7,713.55 L249.69,713.56 L249.67,713.57 L249.66,713.59 L249.65,713.6 L249.64,713.61 L249.62,713.62 L249.61,713.63 L249.6,713.64 L249.58,713.65 L249.56,713.66 L249.55,713.66 L249.53,713.67 L249.51,713.68 L249.49,713.68 L249.47,713.68 L249.46,713.69 L249.43,713.69 L249.41,713.69 L249.39,713.69 C249.12,713.69,248.86,713.43,248.86,713.16 C248.86,712.98,248.99,712.81,249.23,712.81 C249.46,712.81,249.76,713.04,249.76,713.33 Z " /><path
         id="path6601"
         fill="black"
         stroke-width="0"
         d="M249.01,709.6 L249.02,709.62 L249.03,709.65 L249.04,709.67 L249.04,709.69 L249.05,709.72 L249.06,709.74 L249.07,709.75 L249.08,709.77 L249.08,709.79 L249.09,709.81 L249.1,709.82 L249.1,709.84 L249.11,709.85 L249.11,709.87 L249.12,709.89 L249.13,709.92 L249.14,709.95 L249.15,709.97 L249.15,709.98 L249.16,710 L249.16,710.01 L249.17,710.03 L249.18,710.05 L249.18,710.07 L249.19,710.08 L249.2,710.11 L249.21,710.13 L249.22,710.15 L249.22,710.17 C249.3,710.37,249.35,710.51,249.35,710.7 C249.35,711.15,249.04,711.52,248.54,711.52 C247.6,711.52,247.22,710.08,247.22,709.99 C247.22,709.89,247.32,709.89,247.34,709.89 C247.44,709.89,247.45,709.91,247.5,710.07 C247.77,711,248.17,711.3,248.51,711.3 C248.59,711.3,248.76,711.3,248.76,710.98 C248.76,710.77,248.69,710.56,248.65,710.46 C248.57,710.2,248.12,709.05,247.96,708.62 C247.86,708.37,247.73,708.04,247.73,707.83 C247.73,707.36,248.07,707.02,248.55,707.02 C249.48,707.02,249.85,708.46,249.85,708.55 C249.85,708.65,249.76,708.65,249.73,708.65 C249.63,708.65,249.63,708.61,249.58,708.47 C249.4,707.84,249.07,707.23,248.57,707.23 C248.4,707.23,248.33,707.33,248.33,707.56 C248.33,707.81,248.39,707.95,248.62,708.55 Z " /><path
         id="path6603"
         fill="black"
         stroke-width="0"
         d="M254.24,708.25 L254.24,708.26 L254.24,708.26 L254.24,708.27 L254.24,708.27 L254.25,708.27 L254.25,708.28 L254.25,708.29 L254.25,708.29 L254.25,708.3 L254.25,708.31 L254.26,708.31 L254.26,708.32 L254.26,708.32 L254.26,708.33 L254.26,708.33 L254.26,708.34 L254.26,708.34 L254.26,708.35 L254.26,708.35 L254.27,708.35 L254.27,708.36 L254.27,708.36 L254.27,708.36 L254.27,708.37 L254.27,708.38 L254.27,708.38 L254.27,708.39 L254.27,708.39 L254.27,708.4 L254.27,708.4 L254.27,708.41 C254.27,708.54,254.16,708.63,254.04,708.63 C253.96,708.63,253.83,708.59,253.75,708.46 C253.73,708.42,253.68,708.2,253.64,708.06 L253.49,707.48 C253.45,707.31,253.24,706.44,253.22,706.36 C253.21,706.36,252.9,705.76,252.36,705.76 C251.89,705.76,251.89,706.21,251.89,706.33 C251.89,706.71,252.05,707.15,252.26,707.68 C252.34,707.91,252.37,707.99,252.37,708.11 C252.37,708.44,252.09,708.7,251.71,708.7 C251.01,708.7,250.7,707.75,250.7,707.63 C250.7,707.54,250.79,707.54,250.81,707.54 C250.91,707.54,250.92,707.58,250.94,707.65 C251.11,708.23,251.41,708.5,251.69,708.5 C251.81,708.5,251.87,708.43,251.87,708.26 C251.87,708.1,251.8,707.95,251.77,707.86 C251.43,707.01,251.36,706.75,251.36,706.45 C251.36,706.33,251.36,706,251.64,705.78 C251.85,705.6,252.14,705.56,252.33,705.56 C252.61,705.56,252.86,705.67,253.09,705.87 C253,705.49,252.92,705.2,252.63,704.85 C252.44,704.64,252.16,704.41,251.8,704.41 C251.75,704.41,251.42,704.41,251.27,704.64 C251.65,704.68,251.65,705.01,251.65,705.02 C251.65,705.24,251.45,705.28,251.38,705.28 C251.2,705.28,250.97,705.14,250.97,704.82 C250.97,704.47,251.31,704.21,251.8,704.21 C252.51,704.21,253.36,704.76,253.58,705.62 Z " /><path
         id="path6605"
         fill="black"
         stroke-width="0"
         d="M258.03,709.61 L258.03,709.68 L258.03,709.76 L258.03,709.84 L258.03,709.92 L258.02,710.09 L258.01,710.26 L257.99,710.44 L257.97,710.63 L257.94,710.83 L257.91,711.03 L257.87,711.23 L257.82,711.44 L257.77,711.65 L257.71,711.86 L257.64,712.07 L257.56,712.28 L257.52,712.39 L257.47,712.5 L257.43,712.6 L257.38,712.71 C256.78,713.93,255.92,714.58,255.82,714.58 C255.76,714.58,255.72,714.54,255.72,714.48 C255.72,714.45,255.72,714.43,255.91,714.25 C256.89,713.26,257.45,711.68,257.45,709.61 C257.45,707.91,257.09,706.16,255.85,704.91 C255.72,704.79,255.72,704.77,255.72,704.74 C255.72,704.68,255.76,704.64,255.82,704.64 C255.92,704.64,256.82,705.32,257.41,706.58 C257.91,707.67,258.03,708.77,258.03,709.61 Z " /></g>  </g>
</svg>
